<svg width="548" height="398" viewBox="0 0 548 398" fill="none" xmlns="http://www.w3.org/2000/svg">
<path opacity="0.6" d="M318.251 70.6624C283.183 69.4368 249.758 58.0518 217.888 45.5983C186.019 33.1448 154.431 19.3441 120.185 12.7451C98.1664 8.49599 72.9852 7.89837 55.2475 19.7695C38.1746 31.1899 32.6599 50.9059 29.6935 69.1987C27.4625 82.964 26.1682 97.4484 32.2671 110.337C36.5126 119.281 44.0469 126.802 49.2594 135.371C67.3899 165.186 54.5726 201.954 34.9212 231.09C25.7048 244.764 15.0129 257.774 7.90167 272.314C0.790478 286.855 -2.50323 303.512 3.72158 318.34C9.89099 333.027 24.5868 344.078 40.5114 351.842C72.8542 367.597 110.964 372.105 148.126 374.688C230.388 380.345 313.094 377.893 395.572 375.442C426.097 374.531 456.758 373.614 486.784 368.858C503.459 366.22 520.678 362.037 532.785 351.938C548.151 339.115 551.963 317.409 541.664 301.329C524.39 274.366 476.631 267.665 464.554 238.727C457.911 222.799 464.735 205.053 474.395 190.28C495.109 158.592 529.839 130.788 531.667 94.5616C532.926 69.6799 516.231 44.7677 490.415 32.9928C463.36 20.6406 425.84 22.2004 405.882 42.6153C385.329 63.6481 349.209 71.7411 318.251 70.6624Z" fill="#587EEC"/>
<path d="M122.436 367.952C122.436 367.952 94.7368 346.894 89.5042 320.108C87.3822 308.858 81.6903 298.603 73.2824 290.881C69.2602 287.248 64.9159 283.994 60.304 281.157" stroke="#9AB1F3" stroke-width="2" stroke-miterlimit="10"/>
<path d="M56.9146 264.282C59.342 267.584 60.4399 281.577 60.4399 281.577C60.4399 281.577 47.4615 276.437 45.029 273.14C43.8609 271.555 43.3668 269.568 43.6554 267.617C43.9439 265.666 44.9915 263.91 46.5676 262.735C48.1437 261.56 50.1193 261.064 52.0597 261.354C54.0002 261.644 55.7465 262.697 56.9146 264.282Z" fill="#587EEC"/>
<path d="M80.1922 275.262C80.444 279.359 73.8113 291.706 73.8113 291.706C73.8113 291.706 65.6878 280.291 65.431 276.194C65.3333 274.241 66.0049 272.327 67.3003 270.868C68.5957 269.41 70.4105 268.523 72.3515 268.4C74.2925 268.278 76.2034 268.929 77.6701 270.214C79.1367 271.498 80.0411 273.312 80.1872 275.262H80.1922Z" fill="#587EEC"/>
<path d="M102.755 306.824C100.921 310.49 88.9905 317.783 88.9905 317.783C88.9905 317.783 87.7163 303.805 89.5495 300.139C90.4519 298.414 91.9914 297.115 93.8368 296.521C95.6821 295.927 97.6857 296.084 99.4164 296.961C101.147 297.837 102.467 299.361 103.091 301.206C103.715 303.05 103.594 305.068 102.755 306.824Z" fill="#587EEC"/>
<path d="M114.484 334.557C113.29 338.482 102.759 347.694 102.759 347.694C102.759 347.694 99.1484 334.137 100.342 330.206C100.916 328.321 102.211 326.741 103.943 325.816C105.674 324.89 107.701 324.694 109.576 325.271C111.451 325.848 113.022 327.15 113.942 328.892C114.863 330.633 115.058 332.671 114.484 334.557Z" fill="#587EEC"/>
<path d="M61.8047 301.633C65.8337 302.18 78.5704 296.396 78.5704 296.396C78.5704 296.396 67.8231 287.442 63.7739 286.895C61.8305 286.633 59.8629 287.157 58.304 288.353C56.7452 289.55 55.7227 291.32 55.4616 293.274C55.2004 295.228 55.722 297.207 56.9116 298.774C58.1012 300.342 59.8613 301.37 61.8047 301.633Z" fill="#587EEC"/>
<path d="M75.9314 333.898C79.9604 333.205 90.3703 323.861 90.3703 323.861C90.3703 323.861 77.4473 318.553 73.4233 319.247C72.4599 319.406 71.5373 319.755 70.7088 320.274C69.8802 320.793 69.1622 321.473 68.5961 322.272C68.0299 323.072 67.6269 323.977 67.4103 324.934C67.1937 325.892 67.1678 326.882 67.3341 327.85C67.5003 328.817 67.8555 329.742 68.379 330.571C68.9026 331.399 69.5842 332.115 70.3844 332.678C71.1847 333.24 72.0877 333.638 73.0415 333.847C73.9953 334.057 74.9809 334.074 75.9415 333.898H75.9314Z" fill="#587EEC"/>
<path d="M93.936 363.369C98.0204 363.369 109.856 355.929 109.856 355.929C109.856 355.929 98.0153 348.499 93.9309 348.499C91.9701 348.499 90.0896 349.283 88.7031 350.677C87.3166 352.071 86.5377 353.962 86.5377 355.934C86.5377 357.906 87.3166 359.797 88.7031 361.191C90.0896 362.585 91.9701 363.369 93.9309 363.369H93.936Z" fill="#587EEC"/>
<path d="M391.523 185.818C391.523 185.818 408.596 155.406 434.331 146.645C445.138 143.036 454.489 136.001 460.983 126.595C464.029 122.098 466.657 117.329 468.835 112.348" stroke="#9AB1F3" stroke-width="2" stroke-miterlimit="10"/>
<path d="M484.991 106.777C482.06 109.633 468.417 112.591 468.417 112.591C468.417 112.591 471.766 98.9677 474.697 96.1063C476.112 94.7743 477.99 94.0542 479.928 94.101C481.865 94.1479 483.707 94.9579 485.056 96.3568C486.406 97.7557 487.155 99.6315 487.143 101.58C487.131 103.529 486.358 105.395 484.991 106.777Z" fill="#587EEC"/>
<path d="M477.275 131.406C473.246 132.206 460.218 127.233 460.218 127.233C460.218 127.233 470.391 117.61 474.395 116.825C475.356 116.611 476.35 116.591 477.319 116.768C478.288 116.946 479.212 117.316 480.037 117.857C480.861 118.398 481.57 119.099 482.122 119.92C482.673 120.74 483.056 121.663 483.248 122.634C483.44 123.606 483.437 124.606 483.239 125.576C483.041 126.546 482.653 127.466 482.097 128.284C481.54 129.101 480.827 129.798 479.999 130.334C479.171 130.87 478.245 131.234 477.275 131.406Z" fill="#587EEC"/>
<path d="M449.193 158.085C445.336 156.743 436.567 145.824 436.567 145.824C436.567 145.824 450.165 142.694 454.033 144.037C454.962 144.347 455.821 144.839 456.56 145.486C457.298 146.132 457.902 146.92 458.335 147.802C458.768 148.685 459.023 149.646 459.084 150.629C459.145 151.611 459.012 152.596 458.691 153.527C458.371 154.457 457.87 155.314 457.217 156.048C456.565 156.782 455.773 157.379 454.89 157.803C454.006 158.227 453.048 158.47 452.07 158.519C451.092 158.567 450.114 158.42 449.193 158.085Z" fill="#587EEC"/>
<path d="M423.388 173.461C419.359 172.793 408.903 163.499 408.903 163.499C408.903 163.499 421.791 158.101 425.815 158.769C427.752 159.089 429.483 160.17 430.627 161.774C431.771 163.378 432.235 165.373 431.916 167.32C431.598 169.268 430.523 171.009 428.928 172.159C427.334 173.31 425.35 173.776 423.413 173.456L423.388 173.461Z" fill="#587EEC"/>
<path d="M448.841 116.582C448.836 120.689 456.244 132.606 456.244 132.606C456.244 132.606 463.642 120.704 463.642 116.602C463.668 115.61 463.496 114.622 463.136 113.698C462.776 112.774 462.236 111.931 461.547 111.22C460.858 110.509 460.035 109.944 459.125 109.558C458.216 109.172 457.239 108.974 456.252 108.974C455.265 108.974 454.287 109.172 453.378 109.558C452.468 109.944 451.645 110.509 450.956 111.22C450.267 111.931 449.727 112.774 449.367 113.698C449.007 114.622 448.835 115.61 448.861 116.602L448.841 116.582Z" fill="#587EEC"/>
<path d="M418.91 134.946C420.129 138.866 430.725 148.007 430.725 148.007C430.725 148.007 434.251 134.424 433.022 130.504C432.385 128.688 431.071 127.192 429.359 126.33C427.646 125.468 425.668 125.308 423.84 125.883C422.013 126.459 420.478 127.725 419.561 129.416C418.643 131.106 418.414 133.089 418.92 134.946H418.91Z" fill="#587EEC"/>
<path d="M392.284 156.809C392.828 160.861 401.732 171.683 401.732 171.683C401.732 171.683 407.478 158.896 406.934 154.829C406.826 153.844 406.523 152.89 406.044 152.024C405.564 151.158 404.917 150.397 404.14 149.787C403.364 149.176 402.473 148.727 401.522 148.468C400.571 148.208 399.577 148.142 398.6 148.274C397.623 148.406 396.683 148.734 395.833 149.237C394.984 149.74 394.243 150.409 393.654 151.204C393.066 151.999 392.641 152.905 392.406 153.867C392.171 154.83 392.129 155.83 392.284 156.809Z" fill="#587EEC"/>
<path opacity="0.25" d="M484.991 106.777C482.06 109.633 468.417 112.591 468.417 112.591C468.417 112.591 471.766 98.9677 474.697 96.1063C476.112 94.7743 477.99 94.0542 479.928 94.101C481.865 94.1479 483.707 94.9579 485.056 96.3568C486.406 97.7557 487.155 99.6315 487.143 101.58C487.131 103.529 486.358 105.395 484.991 106.777Z" fill="black"/>
<path opacity="0.25" d="M477.275 131.406C473.246 132.206 460.218 127.233 460.218 127.233C460.218 127.233 470.391 117.61 474.395 116.825C475.356 116.611 476.35 116.591 477.319 116.768C478.288 116.946 479.212 117.316 480.037 117.857C480.861 118.398 481.57 119.099 482.122 119.92C482.673 120.74 483.056 121.663 483.248 122.634C483.44 123.606 483.437 124.606 483.239 125.576C483.041 126.546 482.653 127.466 482.097 128.284C481.54 129.101 480.827 129.798 479.999 130.334C479.171 130.87 478.245 131.234 477.275 131.406Z" fill="black"/>
<path opacity="0.25" d="M449.193 158.085C445.336 156.743 436.567 145.824 436.567 145.824C436.567 145.824 450.165 142.694 454.033 144.037C454.962 144.347 455.821 144.839 456.56 145.486C457.298 146.132 457.902 146.92 458.335 147.802C458.768 148.685 459.023 149.646 459.084 150.629C459.145 151.611 459.012 152.596 458.691 153.527C458.371 154.457 457.87 155.314 457.217 156.048C456.565 156.782 455.773 157.379 454.89 157.803C454.006 158.227 453.048 158.47 452.07 158.519C451.092 158.567 450.114 158.42 449.193 158.085Z" fill="black"/>
<path opacity="0.25" d="M423.388 173.461C419.359 172.793 408.903 163.499 408.903 163.499C408.903 163.499 421.791 158.101 425.815 158.769C427.752 159.089 429.483 160.17 430.627 161.774C431.771 163.378 432.235 165.373 431.916 167.32C431.598 169.268 430.523 171.009 428.928 172.159C427.334 173.31 425.35 173.776 423.413 173.456L423.388 173.461Z" fill="black"/>
<path opacity="0.25" d="M448.841 116.582C448.836 120.689 456.244 132.606 456.244 132.606C456.244 132.606 463.642 120.704 463.642 116.602C463.668 115.61 463.496 114.622 463.136 113.698C462.776 112.774 462.236 111.931 461.547 111.22C460.858 110.509 460.035 109.944 459.125 109.558C458.216 109.172 457.239 108.974 456.252 108.974C455.265 108.974 454.287 109.172 453.378 109.558C452.468 109.944 451.645 110.509 450.956 111.22C450.267 111.931 449.727 112.774 449.367 113.698C449.007 114.622 448.835 115.61 448.861 116.602L448.841 116.582Z" fill="black"/>
<path opacity="0.25" d="M418.91 134.946C420.129 138.866 430.725 148.007 430.725 148.007C430.725 148.007 434.251 134.424 433.022 130.504C432.385 128.688 431.071 127.192 429.359 126.33C427.646 125.468 425.668 125.308 423.84 125.883C422.013 126.459 420.478 127.725 419.561 129.416C418.643 131.106 418.414 133.089 418.92 134.946H418.91Z" fill="black"/>
<path opacity="0.25" d="M392.284 156.809C392.828 160.861 401.732 171.683 401.732 171.683C401.732 171.683 407.478 158.896 406.934 154.829C406.826 153.844 406.523 152.89 406.044 152.024C405.564 151.158 404.917 150.397 404.14 149.787C403.364 149.176 402.473 148.727 401.522 148.468C400.571 148.208 399.577 148.142 398.6 148.274C397.623 148.406 396.683 148.734 395.833 149.237C394.984 149.74 394.243 150.409 393.654 151.204C393.066 151.999 392.641 152.905 392.406 153.867C392.171 154.83 392.129 155.83 392.284 156.809Z" fill="black"/>
<path d="M392.505 185.216C392.505 185.216 395.859 150.453 415.833 131.968C424.258 124.264 429.972 114.022 432.12 102.776C433.098 97.4304 433.585 92.0055 433.576 86.5699" stroke="#9AB1F3" stroke-width="2" stroke-miterlimit="10"/>
<path d="M446.096 74.8406C444.585 78.6491 433.284 86.9143 433.284 86.9143C433.284 86.9143 430.856 73.0934 432.382 69.2849C433.117 67.4562 434.544 65.9958 436.349 65.2251C438.155 64.4543 440.191 64.4363 442.009 65.1751C443.828 65.9138 445.28 67.3488 446.046 69.1643C446.813 70.9798 446.831 73.0271 446.096 74.8558V74.8406Z" fill="#587EEC"/>
<path d="M448.972 100.528C445.633 102.888 431.697 103.663 431.697 103.663C431.697 103.663 437.126 90.7279 440.465 88.3679C441.257 87.7719 442.16 87.3418 443.12 87.1029C444.08 86.8641 445.078 86.8215 446.055 86.9775C447.032 87.1335 447.968 87.4851 448.807 88.0114C449.647 88.5376 450.372 89.2279 450.942 90.0413C451.511 90.8547 451.912 91.7747 452.121 92.7468C452.331 93.7189 452.344 94.7234 452.16 95.7007C451.976 96.678 451.6 97.6084 451.052 98.4366C450.504 99.2649 449.797 99.9742 448.972 100.523V100.528Z" fill="#587EEC"/>
<path d="M434.034 136.374C429.965 136.718 417.546 130.297 417.546 130.297C417.546 130.297 428.726 121.89 432.795 121.545C434.75 121.38 436.689 122.002 438.187 123.275C439.685 124.547 440.619 126.366 440.783 128.332C440.947 130.297 440.328 132.247 439.063 133.753C437.797 135.259 435.988 136.199 434.034 136.364V136.374Z" fill="#587EEC"/>
<path d="M416.654 160.932C412.701 161.944 399.385 157.756 399.385 157.756C399.385 157.756 408.989 147.571 412.942 146.538C414.84 146.043 416.856 146.327 418.546 147.327C420.237 148.326 421.463 149.96 421.955 151.869C422.447 153.777 422.165 155.804 421.171 157.504C420.177 159.204 418.552 160.437 416.654 160.932Z" fill="#587EEC"/>
<path d="M417.007 98.5625C418.659 102.315 430.212 110.211 430.212 110.211C430.212 110.211 432.176 96.3139 430.524 92.5611C429.701 90.8054 428.228 89.4429 426.419 88.765C424.61 88.0871 422.61 88.1474 420.844 88.933C419.079 89.7187 417.69 91.1674 416.973 92.9696C416.256 94.7718 416.268 96.7845 417.007 98.5777V98.5625Z" fill="#587EEC"/>
<path d="M397.043 127.542C399.737 130.626 413.104 134.667 413.104 134.667C413.104 134.667 410.847 120.816 408.153 117.732C407.517 116.982 406.739 116.368 405.865 115.923C404.991 115.479 404.037 115.214 403.06 115.143C402.083 115.072 401.102 115.197 400.173 115.511C399.245 115.825 398.388 116.322 397.652 116.972C396.915 117.622 396.315 118.412 395.886 119.298C395.456 120.183 395.205 121.145 395.149 122.129C395.092 123.112 395.23 124.097 395.556 125.026C395.881 125.955 396.386 126.81 397.043 127.542Z" fill="#587EEC"/>
<path d="M381.486 158.394C383.621 161.889 396.116 168.143 396.116 168.143C396.116 168.143 396.222 154.11 394.102 150.61C393.046 148.994 391.407 147.855 389.53 147.435C387.654 147.015 385.688 147.346 384.05 148.358C382.413 149.371 381.232 150.985 380.758 152.859C380.284 154.732 380.554 156.718 381.511 158.394H381.486Z" fill="#587EEC"/>
<path d="M366.82 49.0777C367.656 45.9934 368.664 42.8939 369.369 39.7692C368.523 42.8939 367.51 46.0035 366.82 49.0777Z" fill="url(#paint0_linear_4_6)"/>
<path d="M363.073 78.7859C363.003 78.6643 362.953 78.5428 362.897 78.4313C362.897 78.3807 362.847 78.3402 362.827 78.2895C362.717 78.3416 362.604 78.3873 362.489 78.4263C362.268 78.5124 362.041 78.5934 361.809 78.6592C361.578 78.7251 361.482 78.7605 361.306 78.801C361.16 78.8517 361.01 78.8906 360.857 78.9175L360.898 79.0087C361.084 78.9682 361.265 78.9327 361.452 78.8821L361.502 79.5101C361.714 79.5101 361.91 79.4797 362.101 79.4797C362.192 79.4747 362.283 79.4747 362.373 79.4797C362.766 79.4797 363.109 79.4797 363.381 79.4797C363.275 79.2518 363.164 79.0137 363.073 78.7859ZM465.309 242.434C462.942 239.228 458.218 204.82 458.218 204.82C458.218 204.82 448.926 180.354 451.46 170.59C453.993 160.825 444.54 135.842 444.54 135.842C444.54 135.842 438.295 133.112 437.957 129.061C437.957 129.061 412.459 120.958 411.265 114.88C410.298 109.897 394.485 106.321 388.804 105.192C387.071 98.1625 385.329 91.604 384.044 88.0234C383.697 86.9093 383.37 85.947 383.067 85.1873C380.897 79.6164 374.188 79.11 369.323 79.5556C369.113 78.6062 368.721 77.7067 368.17 76.9069C368.09 76.632 367.93 76.3871 367.712 76.203C367.607 76.1135 367.496 76.0322 367.379 75.9599C367.291 75.7957 367.175 75.6483 367.037 75.5243C366.899 75.3991 366.747 75.2904 366.584 75.2002C366.467 75.1365 366.345 75.0807 366.221 75.0331C365.929 74.9213 365.627 74.8382 365.32 74.7849C364.961 74.7107 364.597 74.6633 364.232 74.6431C365.121 74.2521 365.913 73.6694 366.553 72.9364C366.989 72.4217 367.313 71.8215 367.505 71.174C367.665 70.6354 367.736 70.0744 367.717 69.5128C367.586 69.7442 367.434 69.9629 367.264 70.1661C367.475 67.9226 366.297 65.6435 365.622 63.4101C364.804 60.5025 364.653 57.4463 365.179 54.4713C365.853 49.9842 367.525 45.4464 368.659 40.8783C368.661 40.853 368.661 40.8276 368.659 40.8023C369.253 38.5337 369.621 36.2111 369.757 33.8691C369.953 29.1439 368.749 24.4289 366.815 20.1241C365.098 16.3105 362.565 12.5578 358.687 11.008C355.806 9.83814 352.578 10.0255 349.476 9.83308C342.515 9.39753 335.878 6.9362 329.26 4.6977C322.642 2.45921 315.833 0.423289 308.868 0.813254C301.903 1.20322 294.736 4.58122 291.559 10.7801C290.551 12.7148 289.972 14.8672 288.769 16.6853C286.512 20.114 282.473 21.8308 279.104 24.1959C275.735 26.561 272.768 29.9188 271.55 33.9248C270.884 36.083 270.79 38.3787 271.278 40.5845C271.387 41.0827 271.529 41.5733 271.701 42.0532C272.179 43.3914 272.924 44.6169 273.891 45.6541C274.621 46.4207 275.459 47.0743 276.379 47.5938C277.535 48.2378 278.771 48.7216 280.056 49.0321C280.01 49.184 279.965 49.3461 279.915 49.5031C279.834 49.7614 279.764 50.0095 279.688 50.2881C279.522 50.911 279.366 51.5441 279.235 52.1822C279.23 52.2276 279.23 52.2735 279.235 52.3189C278.616 55.1996 278.306 58.1385 278.308 61.0855C278.307 62.4793 278.378 63.8722 278.52 65.2586C280.534 85.8103 297.406 102.022 318.251 103.075C318.966 103.111 319.686 103.131 320.416 103.131C320.749 103.131 321.076 103.131 321.424 103.131C321.751 103.566 322.073 104.012 322.38 104.448C322.688 104.883 322.97 105.329 323.237 105.764L322.506 105.005L321.776 104.331C321.578 104.604 321.357 104.86 321.116 105.096C320.64 104.927 320.154 104.789 319.661 104.68C317.571 104.215 314.388 104.042 310.198 105.314C306.345 106.473 301.636 108.859 296.126 113.391L269.278 129.598L254.754 138.481L249.521 151.345C249.521 151.345 245.588 166.629 241.211 184.142C241.04 184.193 240.874 184.243 240.708 184.304C240.353 184.264 239.997 184.243 239.64 184.243C237.101 184.237 234.658 185.221 232.825 186.988C230.992 188.755 229.911 191.168 229.809 193.719C221.106 204.354 220.613 214.99 222.658 219.872C222.843 220.329 223.076 220.766 223.353 221.173C224.692 223.118 227.195 228.132 229.734 233.475C229.668 233.916 229.628 234.285 229.608 234.564C229.603 234.655 229.603 234.746 229.608 234.837C229.608 234.837 231.118 257.784 226.082 264.363C224.979 265.796 225.145 267.68 226.082 269.767C229.457 277.273 242.798 287.295 242.798 287.295C242.798 287.295 258.798 287.209 267.712 286.232C267.687 287.133 267.667 288.03 267.646 288.906C267.445 297.758 267.445 305.178 267.445 305.178L267.113 314.461C267.113 314.461 264.091 334.025 262.58 339.419C261.628 342.802 262.726 374.126 263.683 397.154H421.328C423.181 383.53 420.567 342.138 420.567 342.138C420.567 342.138 418.084 331.437 417.994 322.108C417.989 322.098 417.986 322.087 417.986 322.075C417.986 322.064 417.989 322.053 417.994 322.043C417.994 321.227 417.994 320.432 418.024 319.652L419.167 319.612L421.222 319.541H421.408C421.408 319.541 421.459 319.348 421.574 319.034C421.846 318.252 422.217 317.508 422.677 316.821C423.554 315.519 424.924 314.243 426.983 314.157C428.122 314.112 429.884 313.185 431.874 311.817C431.887 311.82 431.901 311.82 431.914 311.817C437.267 308.176 444.343 301.455 446.061 300.351C448.423 298.832 459.734 288.703 459.734 288.703C459.734 288.703 461.421 286.556 463.219 283.968L463.285 283.877C465.521 280.635 467.898 276.761 467.314 275.541C466.307 273.353 467.989 268.121 467.989 268.121C473.241 258.453 467.676 245.64 465.309 242.434ZM367.923 86.6611C367.972 86.8123 368.002 86.9687 368.014 87.127C367.888 86.9599 367.762 86.7826 367.636 86.6206L367.515 86.4585L367.43 86.337L367.621 86.0736C367.621 86.0736 367.621 86.0736 367.621 86.1091C367.754 86.2733 367.856 86.4603 367.923 86.6611ZM366.231 82.174C365.682 82.2854 365.249 82.3867 364.967 82.4627C364.609 81.8245 364.267 81.1864 363.96 80.5382C364.767 81.0092 365.528 81.557 366.231 82.174ZM365.284 82.9742C365.283 82.9641 365.283 82.9539 365.284 82.9438L365.325 82.9742C365.531 83.1109 365.733 83.2426 365.919 83.3793C366.085 83.5009 366.236 83.6173 366.387 83.7389C366.287 83.9162 366.176 84.0985 366.065 84.2453C365.889 83.9668 365.722 83.6984 365.561 83.4198C365.461 83.3084 365.37 83.1565 365.284 82.9742ZM362.263 76.7246C363.236 76.6281 364.216 76.6281 365.189 76.7246C365.325 76.7246 365.445 76.7499 365.566 76.7702C365.839 76.8127 366.108 76.8822 366.367 76.9778C366.962 77.8151 367.329 78.7948 367.43 79.819L367.158 79.8595L366.891 79.9102C366.387 79.9963 365.884 80.0824 365.491 80.1634L364.987 80.2697C364.317 80.4166 363.93 80.528 363.914 80.5331C363.849 80.3963 363.784 80.2697 363.713 80.1381C363.602 79.9203 363.486 79.6975 363.386 79.4797C363.285 79.2619 363.154 79.0137 363.048 78.7859C362.978 78.6643 362.927 78.5428 362.872 78.4313C362.872 78.3807 362.822 78.3402 362.801 78.2895C362.772 78.2358 362.747 78.1799 362.726 78.1224C362.419 77.4944 362.137 76.8664 361.865 76.2486C361.834 76.1878 361.809 76.1219 361.784 76.0612L362.167 76.0358V76.1675L362.263 76.7246ZM242.103 390.894C242.062 383.353 241.518 375.194 240.007 367.537C239.363 364.28 238.698 361.024 238.023 357.823C237.852 357.023 237.686 356.233 237.52 355.443L235.968 355.65H235.827C231.597 335.59 227.175 317.915 227.175 317.915C227.175 317.915 218.392 284.191 219.409 281.501C219.54 281.152 219.374 280.21 219.001 278.827C216.876 271.16 208.002 250.031 204.9 242.809C204.9 242.778 204.875 242.743 204.864 242.718C204.361 241.507 203.998 240.692 203.887 240.454L204.618 229.677L204.658 229.028L204.754 227.651L204.713 227.615L204.754 226.977C204.754 226.977 197.089 220.657 184.105 216.094C183.601 215.911 183.068 215.734 182.539 215.562C183.188 211.201 184.05 206.279 185.173 201.483C185.279 201.002 185.394 200.536 185.515 200.065C185.621 199.594 185.742 199.138 185.863 198.677C186.054 197.928 186.261 197.188 186.472 196.459C187.172 196.236 187.862 195.988 188.542 195.724L188.804 195.623C197.18 192.346 204.091 186.128 208.258 178.12C212.424 170.112 213.565 160.857 211.467 152.069C210.271 147.085 208.063 142.403 204.98 138.319C204.749 138.005 204.502 137.691 204.255 137.382C204.008 137.073 203.711 136.728 203.434 136.414C204.89 133.087 206.607 129.922 206.748 126.686C206.773 126.276 206.773 125.865 206.748 125.455V125.404C206.562 123.323 205.645 121.216 203.51 119.003C200.392 115.756 195.955 114.111 191.518 113.32C187.081 112.53 182.559 112.51 178.097 111.978C170.699 111.087 163.492 108.793 156.093 108.089C146.981 107.24 137.806 108.812 129.487 112.647C123.982 115.179 118.407 119.605 118.075 125.678C117.803 130.697 121.278 135.508 120.401 140.466C119.53 145.338 114.595 149.172 115.028 154.1C115.194 156.024 116.176 157.746 117.405 159.281C117.828 159.787 118.276 160.293 118.74 160.8C120.532 162.709 122.507 164.543 123.509 166.948C123.549 167.049 123.589 167.151 123.625 167.252C124.476 169.627 124.093 172.63 121.988 173.993C122 174.002 122.008 174.014 122.013 174.028C122.043 174.069 122.074 174.099 122.099 174.14C122.102 174.132 122.102 174.123 122.099 174.114C122.845 175.004 123.851 175.635 124.974 175.917L125.402 176.049C125.055 176.429 124.728 176.824 124.395 177.239L124.179 177.528C123.624 178.278 123.119 179.065 122.668 179.883C122.411 180.339 122.164 180.794 121.958 181.25C121.267 182.64 120.768 184.117 120.472 185.641C119.933 188.994 120.694 192.488 119.878 195.77C118.87 199.822 115.683 202.931 113.885 206.694C110.48 213.784 112.409 222.105 113.094 229.935C114.026 240.57 112.515 251.251 111.009 261.816C110.21 267.434 109.411 273.057 108.612 278.686C106.597 292.812 104.583 306.939 102.568 321.065C101.833 326.241 100.962 331.7 97.5319 335.696H97.5671C97.5671 335.696 97.5671 335.727 97.5319 335.737C98.5614 336.189 99.6564 336.473 100.775 336.578C105.252 337.028 109.997 334.851 114.026 332.47C117.216 330.616 120.238 328.483 123.056 326.094C122.643 327.613 122.199 329.27 121.726 331.052C121.728 331.069 121.728 331.086 121.726 331.103C116.04 352.88 106.894 392.803 106.894 392.803C106.894 392.803 106.063 394.54 104.986 397.128H247.008C245.346 395.103 243.8 393.163 242.591 391.598L242.103 390.894ZM136.946 189.531C136.981 189.47 137.006 189.414 137.041 189.358C137.041 189.521 137.041 189.677 137.041 189.829C137.041 189.981 137.041 190.118 137.041 190.26C137.041 190.402 137.041 190.387 137.041 190.457C137.041 190.528 137.041 190.457 137.041 190.457C137.041 190.665 136.996 190.873 136.961 191.08C136.961 191.08 136.961 191.106 136.961 191.126L137.464 191.313L138.049 191.556C141.5 192.927 144.995 194.168 148.534 195.279C148.897 195.395 149.264 195.507 149.632 195.613L149.707 196.241C149.798 196.884 149.884 197.538 149.964 198.191C149.964 198.191 149.964 198.221 149.964 198.242C150.191 200.05 150.413 201.852 150.609 203.615C150.609 203.615 141.362 200.07 141.478 205.453C141.473 205.549 141.473 205.646 141.478 205.742C141.468 205.87 141.468 205.999 141.478 206.127C141.564 210.32 142.868 212.807 143.13 214.083C143.114 214.136 143.087 214.185 143.05 214.225C142.826 214.714 142.749 215.258 142.828 215.79C142.819 216.696 142.89 217.601 143.039 218.494C142.767 218.661 142.501 218.829 142.234 219.001C142.032 219.127 141.841 219.269 141.644 219.411C140.409 215.101 138.793 210.912 136.815 206.892C135.43 204.025 133.873 201.037 133.889 197.892C133.889 197.689 133.889 197.482 133.914 197.274C133.97 196.363 134.143 195.462 134.427 194.595C134.543 194.266 134.669 193.942 134.81 193.623C135.139 192.865 135.507 192.124 135.913 191.404C136.175 190.928 136.452 190.457 136.719 189.981C136.805 189.84 136.885 189.693 136.966 189.551L136.946 189.531ZM363.073 78.7859C363.003 78.6643 362.953 78.5428 362.897 78.4313C362.897 78.3807 362.847 78.3402 362.827 78.2895C362.717 78.3416 362.604 78.3873 362.489 78.4263C362.268 78.5124 362.041 78.5934 361.809 78.6592C361.578 78.7251 361.482 78.7605 361.306 78.801L360.857 78.9175L360.898 79.0087C361.084 78.9682 361.265 78.9327 361.452 78.8821L361.502 79.5101C361.714 79.5101 361.91 79.4797 362.101 79.4797H362.373C362.766 79.4797 363.109 79.4797 363.381 79.4797C363.275 79.2518 363.164 79.0137 363.073 78.7859Z" fill="url(#paint1_linear_4_6)"/>
<path d="M253.031 153.173L250.01 154.515C250.01 154.515 230.313 231.464 230.313 237.684C230.313 243.903 272.078 278.508 272.078 278.508L278.595 234.275C278.595 234.275 269.238 132.839 253.031 153.173Z" fill="#E8F5FF"/>
<path d="M344.646 128.696L327.195 119.54C326.218 115.349 324.483 111.375 322.078 107.815C319.525 104.108 316.13 100.467 311.9 98.5676C301.208 93.7462 357.126 68.4391 357.126 68.4391C358.006 71.4792 359.043 74.4713 360.233 77.4032C363.114 84.5542 367.893 93.802 374.052 96.4355C384.523 100.918 344.646 128.696 344.646 128.696Z" fill="#FFB0B1"/>
<path opacity="0.1" d="M360.233 77.4032C357.844 85.8532 352.875 93.335 346.029 98.792C339.183 104.249 330.805 107.405 322.078 107.815C319.525 104.108 316.13 100.467 311.9 98.5676C301.208 93.7462 357.125 68.4391 357.125 68.4391C358.006 71.4792 359.043 74.4713 360.233 77.4032Z" fill="black"/>
<path d="M361.804 64.6256C361.806 72.9129 359.364 81.0148 354.787 87.9063C350.21 94.7979 343.703 100.17 336.09 103.342C328.476 106.515 320.098 107.346 312.015 105.73C303.932 104.114 296.507 100.124 290.68 94.2641C284.852 88.4044 280.883 80.9384 279.275 72.8103C277.667 64.6822 278.492 56.2571 281.646 48.6007C284.8 40.9443 290.141 34.4004 296.994 29.7967C303.847 25.193 311.903 22.7363 320.144 22.7373C325.622 22.7118 331.05 23.7779 336.116 25.8739C341.181 27.9699 345.784 31.0543 349.657 34.949C353.531 38.8437 356.598 43.4715 358.683 48.5652C360.768 53.6588 361.829 59.1174 361.804 64.6256Z" fill="#FFB0B1"/>
<path d="M367.818 123.318L356.456 149.977L346.434 167.672H314.353L304.995 143.479L308.788 118.39H333.289L349.108 117.494L354.451 115.701L357.896 117.666L367.818 123.318Z" fill="#575A89"/>
<path opacity="0.1" d="M363.904 87.7803C363.904 87.7803 370.99 89.2997 364.645 94.5313C358.299 99.7629 336.406 116.4 336.406 116.4C336.406 116.4 344.097 123.287 342.505 131.355L367.984 117.073L372.516 94.2223C372.516 94.2223 373.025 87.3549 363.904 87.7803Z" fill="black"/>
<path opacity="0.1" d="M341.417 116.4L325.211 119.089C325.211 119.089 328.555 131.522 326.883 135.052C326.832 135.162 326.79 135.275 326.757 135.391L320.144 153.365L325.1 167.48L342.253 143.956L336.406 135.052C336.406 135.052 342.586 126.817 346.262 123.961C349.939 121.105 341.417 116.4 341.417 116.4Z" fill="black"/>
<path d="M341.417 115.706L325.211 118.39C325.211 118.39 328.555 130.823 326.883 134.353C326.832 134.463 326.79 134.576 326.757 134.693L320.144 152.666L325.1 166.781L342.253 143.241L336.406 134.338C336.406 134.338 342.586 126.103 346.262 123.247C349.939 120.39 341.417 115.706 341.417 115.706Z" fill="#DCE6F2"/>
<path d="M364.584 86.4382C364.584 86.4382 371.67 87.9576 365.32 93.1892C358.969 98.4208 336.406 116.4 336.406 116.4C336.406 116.4 344.762 121.945 343.175 130.008L368.654 115.731L373.186 92.8802C373.186 92.8802 373.69 86.0128 364.584 86.4382Z" fill="#575A89"/>
<path opacity="0.1" d="M323.191 109.401C323.191 109.401 324.738 112.308 331.562 117.549C331.562 117.549 320.2 123.627 324.546 132.17L307.166 127.612L304.492 119.21L323.191 109.401Z" fill="black"/>
<path d="M322.521 108.732C322.521 108.732 324.067 111.639 330.892 116.881C330.892 116.881 319.53 122.928 323.876 131.497L306.501 126.939L303.827 118.542L322.521 108.732Z" fill="#575A89"/>
<path opacity="0.1" d="M367.818 123.318L356.456 149.977L346.454 167.672H314.353L304.995 143.479L308.783 118.39H315.597C315.486 124.245 317.611 131.122 317.475 133.68C317.243 137.883 323.71 160.562 323.71 160.562C323.71 160.562 337.242 138.552 342.586 136.592C345.945 135.361 353.061 125.121 357.891 117.666L367.818 123.318Z" fill="black"/>
<path d="M412.575 263.609L411.421 265.067C411.421 265.067 419.777 307.239 417.465 316.816C417.072 318.542 416.848 320.303 416.795 322.073V322.149C416.387 331.893 419.313 344.539 419.313 344.539C419.313 344.539 421.65 381.813 420.32 397.144H263.884C262.968 374.475 261.981 345.106 262.877 341.85C264.388 336.476 267.41 316.983 267.41 316.983L267.742 307.746C267.742 307.746 267.742 298.817 268.014 288.87C268.13 284.398 268.301 279.704 268.548 275.541C268.865 270.304 269.308 265.893 269.918 263.725C270.293 262.082 270.509 260.406 270.562 258.722C270.562 258.565 270.562 258.402 270.593 258.24C270.593 257.734 270.643 257.187 270.663 256.625C270.663 256.468 270.663 256.311 270.663 256.118C270.759 252.857 270.724 248.988 270.618 244.977C270.618 244.759 270.618 244.536 270.618 244.313C270.532 241.305 270.406 238.236 270.265 235.319C269.827 226.203 269.258 218.494 269.258 218.494L250.045 154.479L255.222 141.656L269.59 132.804L296.157 116.673C309.115 105.962 317.646 107.248 320.9 108.423C321.216 108.532 321.525 108.658 321.826 108.803C321.927 108.854 322.008 108.894 322.083 108.94C322.187 108.989 322.286 109.047 322.38 109.112C321.49 109.543 320.716 110.184 320.124 110.981C319.458 111.887 318.983 112.921 318.729 114.019C318.559 114.7 318.439 115.392 318.372 116.091C318.306 116.825 318.281 117.585 318.281 118.35C318.317 120.027 318.46 121.7 318.709 123.358C318.709 123.389 318.709 123.429 318.709 123.47C318.875 124.655 319.082 125.815 319.283 126.903C319.281 126.922 319.281 126.941 319.283 126.959C319.515 128.23 319.747 129.405 319.903 130.418C319.933 130.6 319.958 130.768 319.983 130.925C320.094 131.594 320.146 132.272 320.139 132.95C320.196 134.589 320.415 136.218 320.794 137.812C320.925 138.481 321.076 139.195 321.242 139.939C321.469 140.952 321.716 142.056 321.983 143.181C322.129 143.799 322.285 144.437 322.446 145.07C322.506 145.323 322.572 145.576 322.632 145.834L322.733 146.235C323.806 150.524 324.969 154.793 325.684 157.376C326.107 158.896 326.374 159.833 326.374 159.833C326.374 159.833 333.959 147.501 340.012 140.481C340.103 140.38 340.184 140.284 340.269 140.193C340.869 139.499 341.458 138.866 342.022 138.309C343.256 137.073 344.364 136.192 345.255 135.868C345.445 135.797 345.629 135.711 345.804 135.609C348.282 134.196 352.281 129.066 356.023 123.693C356.39 123.186 356.748 122.634 357.11 122.112C357.941 120.907 358.747 119.697 359.508 118.537C360.092 117.651 360.651 116.79 361.18 115.969C363.698 112.029 365.471 109.092 365.471 109.092L368.966 108.935L369.575 108.904H369.983L385.852 108.165C385.852 108.165 386.537 108.281 387.665 108.509C387.726 108.509 387.786 108.509 387.852 108.55C393.482 109.674 409.125 113.234 410.082 118.172C411.25 124.219 436.482 132.287 436.482 132.287C436.814 136.339 442.994 139.008 442.994 139.008C442.994 139.008 452.351 163.874 449.848 173.618C447.375 183.241 456.284 207.044 456.521 207.712L454.814 209.88L412.575 263.609Z" fill="#E8F5FF"/>
<path opacity="0.1" d="M363.899 86.0129C363.899 86.0129 379.345 81.6068 382.856 90.6773C386.366 99.7478 394.218 136.379 394.218 136.379C394.218 136.379 373.831 140.243 368.487 136.379C365.353 134.086 361.474 133.066 357.624 133.523L346.096 141.418L342.692 140.405C342.692 140.405 361.134 112.834 365.143 103.465C369.152 94.0958 370.507 89.9075 363.899 86.0129Z" fill="black"/>
<path d="M363.23 83.9871C363.23 83.9871 378.686 79.581 382.211 88.6515C385.737 97.7219 393.573 134.353 393.573 134.353C393.573 134.353 373.191 138.217 367.843 134.353C364.71 132.06 360.833 131.04 356.985 131.497L345.447 139.392L342.042 138.379C342.042 138.379 360.485 110.809 364.494 101.439C368.503 92.07 369.837 87.8918 363.23 83.9871Z" fill="#E8F5FF"/>
<path opacity="0.1" d="M259.548 230.122C259.548 230.122 271.076 232.979 273.252 239.532C275.428 246.086 264.731 246.253 264.731 246.253C264.731 246.253 258.214 234.66 259.548 230.122Z" fill="black"/>
<path opacity="0.1" d="M302.487 278.508C302.487 278.508 274.254 336.643 280.771 342.189C287.288 347.735 302.487 278.508 302.487 278.508Z" fill="black"/>
<path opacity="0.1" d="M341.417 235.668C341.417 235.668 363.975 292.137 359.462 300.858C354.95 309.579 369.152 300.858 369.152 300.858L341.417 235.668Z" fill="black"/>
<path d="M372.829 291.448C372.829 291.448 296.64 295.145 318.865 319.004C341.09 342.863 386.699 320.017 386.699 320.017L372.829 291.448Z" fill="#FFB0B1"/>
<path opacity="0.1" d="M361.804 64.6255C361.811 70.1205 360.738 75.5628 358.647 80.6394C357.947 80.7204 357.247 80.771 356.572 80.8014C355.564 78.5781 356.103 76.0104 356.123 73.5643C356.144 71.1181 355.247 68.2415 352.905 67.5831C348.237 66.2613 345.013 75.038 340.41 73.4529C336.885 72.2475 337.807 66.8691 335.777 63.7645C334.17 61.3083 330.952 60.6144 328.449 59.0748C323.126 55.788 323.287 50.5311 320.814 45.5578C318.226 40.3464 312.756 41.886 308.007 44.9602C304.401 47.2999 301.289 50.4348 297.431 52.2986C294.092 53.9192 290.34 54.5067 286.638 54.5928C284.359 54.6816 282.08 54.4394 279.87 53.8736C282.469 44.0455 288.535 35.5036 296.935 29.841C305.336 24.1784 315.498 21.7817 325.526 23.0977C335.554 24.4137 344.764 29.3527 351.438 36.9936C358.112 44.6345 361.795 54.4556 361.799 64.6255H361.804Z" fill="black"/>
<path d="M308.022 43.6182C304.411 45.958 301.304 49.0878 297.446 50.9617C294.107 52.5772 290.355 53.1647 286.653 53.2508C282.121 53.3521 277.241 52.5519 274.143 49.26C271.298 46.2213 270.618 41.5468 271.822 37.5611C273.025 33.5753 275.911 30.2682 279.3 27.8728C282.69 25.4773 286.623 23.8212 288.869 20.3925C290.058 18.5795 290.632 16.4422 291.619 14.5127C294.777 8.33909 301.878 4.99654 308.742 4.58125C315.607 4.16597 322.411 6.22214 328.948 8.45051C335.485 10.6789 342.072 13.1301 348.972 13.5909C352.044 13.7834 355.237 13.5909 358.088 14.7608C361.92 16.3258 364.433 20.0684 366.146 23.8769C368.064 28.1716 369.258 32.8613 369.057 37.551C368.634 47.5634 362.056 57.3885 364.947 66.9806C365.713 69.5382 367.148 72.1616 366.382 74.7191C365.264 78.4516 360.475 79.3025 356.602 79.4797C355.595 77.2564 356.134 74.6837 356.154 72.2426C356.174 69.8015 355.277 66.9198 352.941 66.2614C348.267 64.9497 345.044 73.7113 340.451 72.1312C336.95 70.9208 337.857 65.5474 335.822 62.4428C334.216 59.9815 330.993 59.2927 328.495 57.7531C323.171 54.4663 323.332 49.2094 320.86 44.2361C318.251 38.9994 312.776 40.539 308.022 43.6182Z" fill="#575A89"/>
<path d="M234.145 236.336L230.303 237.684C230.303 237.684 231.813 260.535 226.777 267.088C221.741 273.641 243.316 289.934 243.316 289.934C243.316 289.934 272.889 289.767 273.725 287.402C274.561 285.036 272.214 245.063 272.214 245.063C272.214 245.063 256.34 238.843 257.675 228.932C257.675 228.932 252.83 252.284 245.648 251.277C238.466 250.269 230.313 244.237 234.145 236.336Z" fill="#E8F5FF"/>
<path opacity="0.1" d="M246.963 258.347C252.562 258.347 257.101 254.172 257.101 249.023C257.101 243.874 252.562 239.699 246.963 239.699C241.364 239.699 236.825 243.874 236.825 249.023C236.825 254.172 241.364 258.347 246.963 258.347Z" fill="black"/>
<path d="M258.047 237.01C258.047 237.01 256.033 175.183 238.497 188.958C220.961 202.734 220.789 219.208 224.128 224.075C227.467 228.942 238.174 253.308 238.174 253.308C239.849 254.284 241.73 254.847 243.663 254.951C245.596 255.055 247.526 254.697 249.295 253.907C251.064 253.116 252.622 251.915 253.84 250.403C255.058 248.89 255.903 247.109 256.305 245.204L258.047 237.01Z" fill="#FFB0B1"/>
<path opacity="0.1" d="M367.44 80.4014C367.358 80.1298 367.201 79.8873 366.986 79.7025C366.12 78.9074 364.257 78.6288 361.447 78.8719L361.562 80.2089C365.309 79.8848 366.05 80.6344 366.145 80.761V80.8876L366.261 81.0547C366.728 81.6861 367.059 82.4087 367.233 83.1761C367.406 83.9436 367.418 84.739 367.269 85.5114C366.448 89.639 361.406 92.9258 361.356 92.9613L361.235 93.0322L361.16 93.1487C358.984 96.395 346.68 105.557 343.462 107.927L343.18 107.603C341.74 108.859 329.079 120.006 328.394 124.275C327.951 126.954 324.949 127.992 323.861 128.281C322.713 127.405 318.986 124.422 317.047 121.079C315.229 117.934 322.547 111.796 323.191 109.401L322.184 108.362C322.078 108.747 312.681 117.58 315.294 122.092C317.389 125.713 321.217 128.813 322.557 129.836C322.129 133.745 319.464 156.703 315.37 162.142C310.283 168.903 306.008 202.977 306.481 214.873C306.899 225.443 304.154 245.407 294.988 253.981C293.401 255.531 291.487 256.7 289.388 257.401C287.289 258.103 285.06 258.319 282.866 258.033H282.755H282.644C282.513 258.033 269.218 259.4 258.047 249.93C248.907 242.196 243.729 229.575 242.652 212.407H242.43L242.339 207.408C244.818 207.019 247.05 205.679 248.566 203.67C250.083 201.661 250.766 199.139 250.472 196.634C250.179 194.129 248.931 191.836 246.991 190.236C245.051 188.637 242.57 187.856 240.07 188.058C237.569 188.259 235.244 189.428 233.582 191.317C231.92 193.206 231.052 195.67 231.158 198.19C231.265 200.711 232.339 203.091 234.154 204.832C235.97 206.572 238.385 207.538 240.894 207.525H241.005L241.095 212.493L240.652 212.523C241.76 230.249 247.199 243.361 256.768 251.459C264.041 257.52 273.331 260.577 282.76 260.013C283.429 260.086 284.102 260.124 284.775 260.124C289.097 260.147 293.255 258.465 296.358 255.44C306.013 246.4 308.949 225.701 308.49 214.772C307.987 202.167 312.474 169.318 316.976 163.337C321.388 157.467 324.062 134.596 324.531 130.165C326.127 129.714 329.738 128.291 330.353 124.594C330.796 121.92 339.252 113.68 344.454 109.117L344.298 108.935C347.098 106.878 355.806 100.396 360.122 96.2329C361.462 94.9415 362.791 93.6501 364.181 92.4194C365.853 90.9304 367.979 88.5653 368.538 85.7697C368.728 84.8469 368.729 83.8947 368.54 82.9715C368.352 82.0483 367.977 81.1737 367.44 80.4014Z" fill="black"/>
<path d="M322.386 129.517C322.174 129.37 317.158 125.759 314.645 121.413C312.036 116.901 321.434 108.074 321.535 107.689L322.542 108.727C321.902 111.117 314.584 117.261 316.403 120.401C318.694 124.366 323.519 127.835 323.569 127.871L322.386 129.517Z" fill="#353146"/>
<path d="M342.808 108.909L342.022 107.821C342.183 107.704 358.002 96.1976 360.495 92.4752L360.575 92.3638L360.691 92.2878C360.742 92.2524 365.783 88.9706 366.604 84.838C366.755 84.0664 366.744 83.2714 366.57 82.5046C366.397 81.7377 366.065 81.0161 365.597 80.3863L365.481 80.2141V80.0926C365.38 79.9609 364.64 79.2164 360.893 79.5405L360.777 78.1985C363.592 77.9554 365.451 78.2339 366.317 79.029C366.532 79.2156 366.691 79.4596 366.775 79.733C367.32 80.503 367.702 81.377 367.897 82.3012C368.093 83.2254 368.099 84.1801 367.913 85.1064C367.354 87.907 365.234 90.2721 363.557 91.756C362.172 92.9867 360.837 94.2883 359.503 95.5696C354.441 100.447 343.362 108.509 342.808 108.909Z" fill="#E8F5FF"/>
<path d="M241.689 205.645L240.355 205.67L240.504 213.827L241.838 213.803L241.689 205.645Z" fill="#E8F5FF"/>
<path d="M240.244 206.882C245.626 206.882 249.989 202.494 249.989 197.082C249.989 191.67 245.626 187.282 240.244 187.282C234.862 187.282 230.499 191.67 230.499 197.082C230.499 202.494 234.862 206.882 240.244 206.882Z" fill="#587EEC"/>
<path d="M240.244 205.22C244.714 205.22 248.337 201.577 248.337 197.082C248.337 192.587 244.714 188.943 240.244 188.943C235.774 188.943 232.151 192.587 232.151 197.082C232.151 201.577 235.774 205.22 240.244 205.22Z" fill="#E8F5FF"/>
<path d="M284.14 259.471C283.467 259.472 282.795 259.436 282.126 259.365C272.697 259.923 263.409 256.866 256.134 250.811C246.565 242.708 241.136 229.611 240.018 211.87L242.032 211.743C243.11 228.912 248.287 241.538 257.433 249.266C268.603 258.711 281.894 257.369 282.025 257.369H282.136H282.247C284.441 257.654 286.671 257.437 288.77 256.736C290.87 256.034 292.785 254.866 294.374 253.318C303.535 244.743 306.28 224.779 305.862 214.21C305.358 202.303 309.634 168.229 314.725 161.473C319.182 155.553 321.947 128.868 321.978 128.6L322.053 127.84L322.798 127.709C322.844 127.709 327.195 126.878 327.739 123.606C328.444 119.342 341.085 108.195 342.52 106.934L343.835 108.453C338.612 113.012 330.156 121.256 329.733 123.936C329.119 127.643 325.508 129.061 323.916 129.506C323.413 133.943 320.759 156.809 316.362 162.679C311.86 168.66 307.372 201.508 307.876 214.114C308.309 225.043 305.403 245.746 295.749 254.781C292.64 257.814 288.471 259.498 284.14 259.471Z" fill="#353146"/>
<g opacity="0.1">
<path opacity="0.1" d="M366.095 52.6532C366.921 49.5841 367.918 46.4948 368.613 43.3852C367.782 46.51 366.78 49.5841 366.095 52.6532Z" fill="black"/>
<path opacity="0.1" d="M357.67 76.7702C356.662 74.5469 357.201 71.9742 357.221 69.5331C357.241 67.092 356.345 64.2356 354.008 63.5519C349.335 62.2402 346.111 71.0068 341.518 69.4217C337.993 68.2113 338.925 62.8379 336.89 59.7333C335.283 57.272 332.065 56.5832 329.567 55.0436C324.239 51.7568 324.4 46.4999 321.932 41.5266C319.339 36.3102 313.874 37.8497 309.12 40.9289C305.509 43.2687 302.402 46.4036 298.544 48.2724C295.205 49.888 291.453 50.4755 287.751 50.5616C283.244 50.6679 278.338 49.8627 275.241 46.5708C272.854 44.0385 271.993 40.3263 272.486 36.847C272.401 37.085 272.325 37.323 272.25 37.5611C271.041 41.5468 271.746 46.2314 274.571 49.26C277.669 52.5519 282.574 53.3521 287.081 53.2508C290.788 53.1647 294.535 52.5772 297.879 50.9617C301.747 49.0878 304.854 45.958 308.455 43.6182C313.209 40.539 318.679 38.9994 321.267 44.2158C323.735 49.1891 323.579 54.446 328.902 57.7329C331.421 59.2522 334.619 59.9612 336.23 62.4226C338.245 65.5372 337.353 70.9005 340.859 72.1109C345.447 73.691 348.67 64.9295 353.343 66.2412C355.68 66.8996 356.582 69.7863 356.557 72.2223C356.531 74.6583 356.008 77.2361 357.005 79.4594C360.878 79.2822 365.667 78.4466 366.79 74.6988C366.945 74.161 367.016 73.6024 367.002 73.0428C365.365 75.8839 361.155 76.6132 357.67 76.7702Z" fill="black"/>
</g>
<path opacity="0.1" d="M448.69 201.559L454.537 207.778C454.537 207.778 459.216 242.049 461.552 245.255C463.889 248.461 469.409 261.213 464.227 270.79C464.227 270.79 462.555 276.001 463.557 278.184C464.559 280.367 456.043 291.291 456.043 291.291C456.043 291.291 444.847 301.369 442.505 302.884C440.163 304.398 427.804 316.492 423.629 316.659C419.454 316.826 418.09 322.038 418.09 322.038L394.53 322.878C394.53 322.878 381.516 322.195 378.686 324.043C378.686 324.043 380.197 304.049 365.657 290.942L384.201 284.221C384.201 284.221 391.221 281.182 393.392 278.007C394.757 276.06 396.694 274.592 398.932 273.809C398.932 273.809 404.109 270.112 404.275 268.096C404.441 266.08 410.606 263.609 410.606 263.609L407.116 233.652L408.954 183.919C408.954 183.919 414.801 142.249 427.165 144.604C439.529 146.959 448.69 201.559 448.69 201.559Z" fill="black"/>
<path d="M450.704 201.559L456.551 207.778C456.551 207.778 461.23 242.049 463.567 245.255C465.904 248.461 471.423 261.213 466.241 270.79C466.241 270.79 464.574 276.001 465.576 278.184C466.578 280.367 458.057 291.291 458.057 291.291C458.057 291.291 446.862 301.369 444.52 302.884C442.178 304.398 429.819 316.492 425.644 316.659C421.469 316.826 420.104 322.038 420.104 322.038L396.544 322.878C396.544 322.878 383.521 322.195 380.7 324.043C380.7 324.043 382.211 304.049 367.672 290.942L386.215 284.221C386.215 284.221 393.236 281.182 395.406 278.007C396.772 276.06 398.709 274.592 400.946 273.809C400.946 273.809 406.123 270.112 406.289 268.096C406.456 266.08 412.62 263.609 412.62 263.609L409.13 233.652L410.968 183.919C410.968 183.919 416.815 142.249 429.179 144.604C441.543 146.959 450.704 201.559 450.704 201.559Z" fill="#E8F5FF"/>
<path opacity="0.1" d="M428.968 251.798C428.968 251.798 446.177 247.24 450.689 252.811C455.202 258.382 428.968 251.798 428.968 251.798Z" fill="black"/>
<path opacity="0.1" d="M424.959 259.441C430.806 263.558 448.851 263.725 448.851 263.725L424.959 259.441Z" fill="black"/>
<path opacity="0.1" d="M433.813 280.023C434.316 280.19 446.217 292.962 451.213 289.098C456.209 285.234 433.813 280.023 433.813 280.023Z" fill="black"/>
<path opacity="0.1" d="M273.539 172.828C273.539 172.828 277.034 197.026 275.312 206.882C273.589 216.737 279.875 228.947 279.875 228.947L273.539 172.828Z" fill="black"/>
<path d="M196.162 182.668C192.133 185.844 189.192 193.359 187.061 201.62C183.345 216.028 182.131 232.736 182.131 232.736C182.131 232.736 150.05 225.342 152.387 221.984C153.857 219.872 151.883 203.959 150.236 192.423C149.254 185.606 148.378 180.313 148.378 180.313C148.378 180.313 207.191 173.927 196.162 182.668Z" fill="#FFB0B1"/>
<path opacity="0.1" d="M196.162 181.995C192.133 185.175 189.192 192.686 187.061 200.946C180.67 202.898 173.872 203.074 167.389 201.455C160.905 199.837 154.979 196.485 150.236 191.754C149.254 184.932 148.378 179.64 148.378 179.64C148.378 179.64 207.191 173.259 196.162 181.995Z" fill="black"/>
<path d="M213.406 163.894C213.409 172.703 210.314 181.229 204.667 187.963C199.02 194.697 191.186 199.205 182.552 200.69C173.917 202.174 165.039 200.539 157.488 196.074C149.938 191.608 144.201 184.601 141.294 176.291C138.388 167.982 138.498 158.906 141.605 150.67C144.713 142.434 150.618 135.57 158.275 131.291C165.932 127.012 174.847 125.596 183.443 127.291C192.038 128.987 199.76 133.686 205.242 140.557C210.525 147.176 213.404 155.408 213.406 163.894Z" fill="#FFB0B1"/>
<path opacity="0.1" d="M242.656 397.144H232.08L231.189 378.359L230.257 358.917C230.257 358.917 232.659 358.557 236.487 358.021L238.033 357.813H238.159C238.995 361.758 239.821 365.81 240.617 369.856C241.941 377.04 242.631 384.327 242.677 391.633C242.677 392.14 242.677 392.646 242.677 393.122C242.707 394.475 242.677 395.827 242.656 397.144Z" fill="black"/>
<path d="M240.627 397.144H107.992C108.566 395.832 108.949 395.037 108.949 395.037C108.949 395.037 119.56 348.353 124.954 328.601C124.956 328.584 124.956 328.567 124.954 328.55C125.628 325.867 126.442 323.222 127.392 320.625C127.453 320.448 127.533 320.278 127.629 320.118C130.298 315.753 133.642 311.048 128.963 304.327C124.284 297.607 125.941 268.035 125.941 268.035C125.941 268.035 131.622 242.829 137.636 229.388C138.548 227.306 139.843 225.416 141.453 223.817C141.976 223.302 142.535 222.825 143.125 222.389C143.574 222.05 144.041 221.737 144.525 221.452L144.621 221.391C147.147 219.951 149.952 219.075 152.845 218.824C154.9 218.608 156.975 218.665 159.014 218.996C168.765 220.434 176.571 222.84 182.776 225.58C199.592 233.009 204.683 242.966 204.784 243.174L204.824 243.26C205.499 244.845 215.37 268.02 218.926 278.833C219.847 281.648 220.351 283.629 220.15 284.17C219.142 286.855 227.835 320.457 227.835 320.457C227.835 320.457 231.864 336.664 235.893 355.661C236.069 356.451 236.235 357.241 236.397 358.041C237.117 361.49 237.832 365.004 238.522 368.514C239.859 375.747 240.548 383.086 240.582 390.443C240.656 392.736 240.671 394.969 240.627 397.144Z" fill="#EB5569"/>
<path opacity="0.1" d="M152.054 207.266C152.054 207.266 142.904 203.721 143.014 209.1C143.125 214.478 145.245 217.051 144.576 217.836C143.906 218.621 144.908 223.326 144.908 223.326C144.908 223.326 157.272 223.326 162.953 225.899C168.634 228.471 189.574 233.627 192.249 235.197C194.923 236.767 204.839 243.807 204.839 243.807L205.731 230.477C205.731 230.477 195.482 221.964 178.666 217.598C161.85 213.232 152.054 207.266 152.054 207.266Z" fill="black"/>
<path d="M152.054 206.593C152.054 206.593 142.904 203.048 143.014 208.426C143.125 213.805 145.245 216.377 144.576 217.162C143.906 217.947 144.908 222.652 144.908 222.652C144.908 222.652 157.272 222.652 162.953 225.23C168.634 227.808 189.574 232.958 192.249 234.523C194.923 236.088 204.839 243.133 204.839 243.133L205.741 229.844C205.741 229.844 195.492 221.33 178.676 216.965C161.86 212.599 152.054 206.593 152.054 206.593Z" fill="#EB5569"/>
<path opacity="0.1" d="M179.678 238.671C179.678 238.671 197.164 257.708 196.273 262.981C195.381 268.253 179.678 238.671 179.678 238.671Z" fill="black"/>
<path opacity="0.1" d="M151.274 307.442C151.274 307.442 138.457 319.318 134.679 319.991C130.902 320.665 137.575 322.904 141.916 321.116C146.258 319.328 155.514 314.623 155.514 314.623L151.274 307.442Z" fill="black"/>
<path d="M245.834 397.144H215.944C211.764 393.497 207.811 390.119 205.292 388.088C201.263 384.837 198.358 380.051 196.504 376.202C196.086 375.326 195.724 374.505 195.416 373.761C194.866 372.479 194.382 371.168 193.966 369.836L216.1 356.618C217.324 357.664 218.473 358.794 219.54 360.001L219.807 360.31C221.036 361.768 222.119 363.424 222.214 364.782C222.325 366.362 226.697 372.475 231.164 378.344C235.696 384.315 240.34 390.023 240.647 390.408C240.647 390.408 241.412 391.456 242.661 393.067C243.543 394.232 244.631 395.629 245.834 397.144Z" fill="#FFB0B1"/>
<path opacity="0.1" d="M205.242 140.557C204.18 142.968 203.228 145.47 203.087 148.154C202.689 155.903 203.334 173.228 194.802 177.118C190.577 179.032 186.054 174.829 181.421 174.727C178.087 174.656 175.03 176.783 172.995 179.442C170.961 182.101 169.696 185.256 168.221 188.265C166.878 190.995 165.33 193.619 163.593 196.115C163.073 196.878 162.501 197.604 161.88 198.287C156.678 196.08 152.046 192.707 148.336 188.427C144.626 184.146 141.937 179.071 140.473 173.587C139.01 168.103 138.81 162.356 139.89 156.783C140.97 151.209 143.301 145.958 146.704 141.427C150.108 136.897 154.496 133.208 159.532 130.641C164.568 128.075 170.121 126.698 175.767 126.616C181.413 126.534 187.002 127.749 192.11 130.168C197.218 132.588 201.71 136.148 205.242 140.577V140.557Z" fill="black"/>
<path d="M202.417 146.786C202.014 154.535 202.664 171.861 194.127 175.745C189.902 177.659 185.379 173.461 180.746 173.36C177.412 173.284 174.36 175.416 172.32 178.07C170.281 180.723 169.027 183.884 167.546 186.897C166.202 189.627 164.655 192.251 162.918 194.747C161.88 196.226 160.732 197.71 159.135 198.54C156.355 199.999 152.986 199.178 150.005 198.241C146.137 197.016 142.326 195.635 138.572 194.099C138.658 193.529 138.702 192.953 138.703 192.377C138.592 192.59 138.472 192.787 138.351 193L138.114 193.415C137.686 194.175 137.268 194.934 136.885 195.714C136.739 196.013 136.598 196.322 136.472 196.631C135.966 197.781 135.648 199.005 135.53 200.257C135.274 203.635 136.931 206.841 138.401 209.88C144.057 221.634 147.552 235.379 143.296 247.711C141.453 253.075 138.26 257.84 135.928 263.021C131.852 272.197 130.652 282.405 132.489 292.284C133.652 298.422 135.984 304.499 135.41 310.723C134.402 321.435 125.216 329.406 116.015 334.886C111.044 337.834 104.96 340.457 99.6824 338.127C103.047 334.177 103.913 328.712 104.638 323.557C106.622 309.494 108.612 295.425 110.606 281.349C111.402 275.748 112.196 270.147 112.988 264.546C114.469 254.022 115.97 243.381 115.043 232.791C114.368 224.987 112.464 216.701 115.829 209.637C117.606 205.894 120.774 202.794 121.761 198.763C122.572 195.486 121.817 192.002 122.351 188.665C122.643 187.146 123.137 185.674 123.821 184.289C124.692 182.409 125.828 180.666 127.195 179.113C125.846 178.718 124.587 178.176 123.821 177.042C125.987 175.624 126.314 172.428 125.332 170.027C124.35 167.627 122.386 165.798 120.618 163.904C118.85 162.01 117.148 159.802 116.927 157.219C116.498 152.302 121.384 148.493 122.245 143.641C123.116 138.704 119.671 133.902 119.948 128.904C120.271 122.862 125.79 118.471 131.24 115.924C139.463 112.096 148.546 110.523 157.569 111.366C164.912 112.064 172.018 114.348 179.341 115.235C183.758 115.741 188.235 115.792 192.621 116.572C197.008 117.352 201.405 118.998 204.492 122.234C212.63 130.767 202.88 137.792 202.417 146.786Z" fill="#575A89"/>
<path opacity="0.1" d="M195.608 376.207C193.039 375.088 188.366 375.756 180.343 373.3C172.32 370.844 170.774 359.742 170.774 359.742V359.707C170.678 359.454 169.933 357.803 164.887 352.019C159.311 345.633 147.26 313.377 147.26 313.377C147.26 313.377 136.573 301.835 136.91 297.581C137.248 293.327 135.012 282.008 135.233 269.347C135.455 256.686 159.291 248.289 159.291 248.289C205.187 240.11 194.379 293.317 193.155 297.348C191.931 301.379 198.282 312.268 198.282 312.268C197.386 317.008 201.958 324.347 201.958 324.347C201.958 324.347 203.066 330.84 203.293 333.306C203.306 333.42 203.331 333.532 203.369 333.64C204.104 335.965 210.097 338.072 212.535 339.353C215.098 340.7 223.342 352.46 223.342 352.46C225.12 361.095 198.166 377.342 195.608 376.207Z" fill="black"/>
<path d="M196.943 374.181C194.379 373.057 189.7 373.73 181.683 371.269C173.665 368.808 172.114 357.717 172.114 357.717V357.681C172.023 357.423 171.273 355.777 166.226 349.993C160.651 343.607 148.6 311.346 148.6 311.346C148.6 311.346 137.913 299.809 138.245 295.555C138.577 291.301 136.351 279.982 136.573 267.331C136.795 254.68 160.616 246.288 160.616 246.288C206.511 238.109 195.704 291.316 194.48 295.348C193.256 299.379 199.607 310.268 199.607 310.268C198.71 315.008 203.283 322.346 203.283 322.346C203.283 322.346 204.391 328.839 204.623 331.305C204.631 331.419 204.655 331.532 204.693 331.64C205.429 333.964 211.422 336.071 213.864 337.352C216.423 338.694 224.672 350.459 224.672 350.459C226.46 359.079 199.506 375.326 196.943 374.181Z" fill="#EB5569"/>
<path opacity="0.1" d="M161.523 274.067C161.523 274.067 181.572 295.338 186.805 295.338C192.037 295.338 161.523 274.067 161.523 274.067Z" fill="black"/>
<path d="M196.942 374.181C194.379 373.057 189.7 373.731 181.683 371.269C173.665 368.808 172.114 357.717 172.114 357.717V357.681C177.427 354.136 190.884 344.124 196.187 340.462C199.919 337.894 202.966 334.121 204.749 331.62C205.484 333.944 211.477 336.051 213.92 337.332C216.478 338.674 224.727 350.439 224.727 350.439C226.46 359.079 199.506 375.326 196.942 374.181Z" fill="#FF748E"/>
<g opacity="0.1">
<path opacity="0.1" d="M123.851 177.097C123.877 177.138 123.912 177.173 123.942 177.214C124.093 177.021 124.249 176.829 124.41 176.647C124.239 176.814 124.052 176.965 123.851 177.097Z" fill="black"/>
<path opacity="0.1" d="M135.535 200.313C135.747 197.502 137.243 195.026 138.643 192.554C137.726 192.2 136.81 191.84 135.903 191.465C135.989 190.897 136.033 190.323 136.034 189.748C134.619 192.281 133.078 194.772 132.861 197.624C132.604 201.007 134.261 204.208 135.732 207.246C141.393 218.996 144.883 232.741 140.627 245.078C138.779 250.436 135.591 255.207 133.259 260.388C129.184 269.563 127.986 279.768 129.824 289.645C130.978 295.788 133.315 301.861 132.74 308.085C131.733 318.796 122.552 326.768 113.346 332.242C109.584 334.481 105.187 336.532 100.982 336.385C100.593 337.015 100.158 337.616 99.6824 338.183C104.965 340.528 111.044 337.889 116.015 334.932C125.226 329.462 134.428 321.511 135.435 310.779C136.009 304.555 133.672 298.483 132.514 292.339C130.675 282.464 131.87 272.259 135.938 263.082C138.255 257.906 141.478 253.13 143.306 247.772C147.562 235.435 144.067 221.69 138.411 209.941C136.946 206.882 135.279 203.696 135.535 200.313Z" fill="black"/>
<path opacity="0.1" d="M204.482 122.295C203.986 121.784 203.454 121.31 202.89 120.877C208.994 128.838 200.181 135.604 199.743 144.173C199.35 151.922 199.994 169.252 191.458 173.132C187.238 175.051 182.71 170.848 178.082 170.746C174.743 170.676 171.691 172.808 169.651 175.462C167.611 178.115 166.357 181.276 164.882 184.284C163.535 187.014 161.987 189.638 160.248 192.134C159.241 193.618 158.063 195.096 156.461 195.932C153.691 197.386 150.322 196.57 147.335 195.628C144.431 194.71 141.554 193.697 138.703 192.59C138.697 193.117 138.654 193.643 138.572 194.165C142.329 195.704 146.142 197.085 150.01 198.307C152.991 199.249 156.36 200.065 159.135 198.611C160.732 197.776 161.89 196.292 162.923 194.808C164.662 192.315 166.209 189.693 167.551 186.963C169.032 183.955 170.281 180.789 172.325 178.136C174.37 175.482 177.417 173.355 180.751 173.426C185.384 173.527 189.912 177.73 194.132 175.811C202.669 171.932 202.019 154.601 202.417 146.852C202.88 137.843 212.63 130.823 204.482 122.295Z" fill="black"/>
</g>
<path opacity="0.1" d="M138.119 193.42C137.691 194.18 137.273 194.939 136.89 195.719C136.744 196.018 136.603 196.327 136.477 196.636C133.838 193.962 127.412 187.606 123.826 185.636C124.698 183.757 125.834 182.014 127.2 180.46C127.2 180.46 135.747 185.003 138.119 193.42Z" fill="black"/>
<path d="M138.356 193.005C136.376 183.995 127.2 179.118 127.2 179.118C125.833 180.671 124.697 182.414 123.826 184.294C127.608 186.376 134.579 193.354 136.89 195.719L138.356 193.005Z" fill="#EB5569"/>
<defs>
<linearGradient id="paint0_linear_4_6" x1="368.094" y1="49.0777" x2="368.094" y2="39.7692" gradientUnits="userSpaceOnUse">
<stop stop-color="#808080" stop-opacity="0.25"/>
<stop offset="0.54" stop-color="#808080" stop-opacity="0.12"/>
<stop offset="1" stop-color="#808080" stop-opacity="0.1"/>
</linearGradient>
<linearGradient id="paint1_linear_4_6" x1="231050" y1="333498" x2="231050" y2="23252.9" gradientUnits="userSpaceOnUse">
<stop stop-color="#808080" stop-opacity="0.25"/>
<stop offset="0.54" stop-color="#808080" stop-opacity="0.12"/>
<stop offset="1" stop-color="#808080" stop-opacity="0.1"/>
</linearGradient>
</defs>
</svg>
