<svg width="68" height="73" viewBox="0 0 68 73" fill="none" xmlns="http://www.w3.org/2000/svg">
<path d="M33.7249 0.556641C27.8873 0.556641 24.3931 1.44723 22.172 2.55768C21.0601 3.11429 20.2706 3.69874 19.7397 4.2971C19.2059 4.89546 18.8696 5.77492 18.8696 5.77492C18.7824 5.99843 18.7245 6.2323 18.6972 6.47069L17.2184 25.5181C17.1989 25.635 17.2378 25.8242 17.2184 25.9523L17.046 27.867C17.0298 28.0401 17.0298 28.2144 17.046 28.3875C17.046 37.5716 24.5515 45.0859 33.7249 45.0859C42.8983 45.0859 50.4038 37.5716 50.4038 28.3875V27.9533C50.4043 27.9245 50.4043 27.8958 50.4038 27.867L48.7526 6.47069C48.7253 6.2323 48.6674 5.99843 48.5802 5.77492C48.5802 5.77492 48.2439 4.89546 47.7102 4.2971C47.1792 3.69596 46.3898 3.11151 45.2778 2.55768C43.0568 1.44444 39.5625 0.556641 33.7249 0.556641ZM33.7249 45.0859C15.3781 45.0859 0.367126 53.7302 0.367126 61.5228V72.9167H67.0827V61.5228C67.0827 54.1198 53.5116 45.9654 36.4186 45.1722C35.5219 45.113 34.6235 45.0842 33.7249 45.0859ZM33.7249 6.1228C39.0066 6.1228 41.6446 6.95773 42.7593 7.51434C43.1318 7.70081 43.1763 7.77317 43.2819 7.86223L44.4105 22.1255C41.8531 22.2814 38.3672 22.8213 33.7249 22.8213C29.0826 22.8213 25.5995 22.2814 23.0393 22.1255L24.1679 7.86223C24.2708 7.77317 24.318 7.70081 24.6905 7.51434C25.8052 6.95773 28.4433 6.1228 33.7249 6.1228ZM31.4649 8.90588V12.2122H28.1653V16.7347H31.4677V20.0382H35.9821V16.7319H39.2845V12.2122H35.9821V8.90588H31.4677H31.4649ZM25.3855 51.3479L32.5101 67.3506H5.92676V61.5228C5.92676 59.4494 13.0153 53.3767 25.3855 51.3479ZM42.0644 51.3479C54.4345 53.3795 61.5231 59.4494 61.5231 61.5228V67.3506H34.9397L42.0644 51.3479Z" fill="#EC5863"/>
</svg>
