<svg width="88" height="74" viewBox="0 0 88 74" fill="none" xmlns="http://www.w3.org/2000/svg">
<path d="M24.5815 0.902588C18.2049 0.902588 12.0895 3.41713 7.58063 7.89304C3.07172 12.369 0.538635 18.4396 0.538635 24.7695C0.538635 26.9392 0.932064 29.1089 1.50035 31.2786H19.3358L24.8875 16.6547C26.1989 13.1832 31.3572 12.836 33.0184 16.6547L42.0672 39.9575L44.6464 33.7955C45.2146 32.3635 46.7446 31.2786 48.6244 31.2786H87.0055C87.5738 29.1089 87.9672 26.9392 87.9672 24.7695C87.9672 18.4396 85.4341 12.369 80.9252 7.89304C76.4163 3.41713 70.3009 0.902588 63.9244 0.902588C55.7935 0.902588 48.6244 4.93827 44.2529 11.0569C39.8815 4.93827 32.7124 0.902588 24.5815 0.902588ZM4.91006 37.7878C3.75069 37.7878 2.6388 38.245 1.819 39.0588C0.999195 39.8726 0.538635 40.9763 0.538635 42.1272C0.538635 43.2781 0.999195 44.3819 1.819 45.1957C2.6388 46.0095 3.75069 46.4667 4.91006 46.4667H15.5764L39.8815 70.3336C44.2529 74.2391 44.2529 74.2391 48.6244 70.3336L72.9295 46.4667H83.5958C84.7552 46.4667 85.8671 46.0095 86.6869 45.1957C87.5067 44.3819 87.9672 43.2781 87.9672 42.1272C87.9672 40.9763 87.5067 39.8726 86.6869 39.0588C85.8671 38.245 84.7552 37.7878 83.5958 37.7878H50.3729L46.3075 47.7685C44.5589 52.1513 39.5318 51.5438 37.9144 47.8987L28.9529 24.7695L24.7564 34.8804C24.1006 36.5294 22.6144 37.7878 20.6472 37.7878H4.91006Z" fill="#EC5863"/>
</svg>
