<svg width="65" height="73" viewBox="0 0 65 73" fill="none" xmlns="http://www.w3.org/2000/svg">
<path d="M64.4813 25.6532H43.0528V72.6873H35.9099V50.9792H28.767V72.6873H21.6242V25.6532H0.195618V18.4172H64.4813V25.6532ZM32.3385 0.327148C34.2329 0.327148 36.0497 1.08951 37.3892 2.44653C38.7288 3.80354 39.4813 5.64405 39.4813 7.56316C39.4813 9.48227 38.7288 11.3228 37.3892 12.6798C36.0497 14.0368 34.2329 14.7992 32.3385 14.7992C30.4441 14.7992 28.6273 14.0368 27.2877 12.6798C25.9482 11.3228 25.1956 9.48227 25.1956 7.56316C25.1956 3.54717 28.3742 0.327148 32.3385 0.327148Z" fill="#EC5863"/>
</svg>
