<svg width="140" height="40" viewBox="0 0 140 40" fill="none" xmlns="http://www.w3.org/2000/svg">
<path d="M51.462 26.1415C49.734 26.1415 48.384 25.7215 47.412 24.8815C46.44 24.0295 45.924 22.8235 45.864 21.2635C45.852 20.9155 45.846 20.3635 45.846 19.6075C45.846 18.8515 45.852 18.2995 45.864 17.9515C45.924 16.4275 46.446 15.2515 47.43 14.4235C48.426 13.5955 49.77 13.1815 51.462 13.1815C52.602 13.1815 53.592 13.3675 54.432 13.7395C55.284 14.1115 55.932 14.5855 56.376 15.1615C56.832 15.7375 57.072 16.3315 57.096 16.9435C57.096 17.0515 57.054 17.1415 56.97 17.2135C56.898 17.2855 56.808 17.3215 56.7 17.3215H54.072C53.952 17.3215 53.856 17.3035 53.784 17.2675C53.712 17.2315 53.652 17.1655 53.604 17.0695C53.448 16.7215 53.202 16.4215 52.866 16.1695C52.53 15.9055 52.062 15.7735 51.462 15.7735C50.034 15.7735 49.284 16.5295 49.212 18.0415C49.2 18.3775 49.194 18.8995 49.194 19.6075C49.194 20.3035 49.2 20.8255 49.212 21.1735C49.284 22.7575 50.052 23.5495 51.516 23.5495C52.224 23.5495 52.788 23.3695 53.208 23.0095C53.64 22.6375 53.856 22.0735 53.856 21.3175V20.9755H52.164C52.032 20.9755 51.924 20.9335 51.84 20.8495C51.756 20.7535 51.714 20.6395 51.714 20.5075V19.1755C51.714 19.0435 51.756 18.9355 51.84 18.8515C51.924 18.7555 52.032 18.7075 52.164 18.7075H56.7C56.832 18.7075 56.94 18.7555 57.024 18.8515C57.108 18.9355 57.15 19.0435 57.15 19.1755V21.2275C57.15 22.2475 56.916 23.1295 56.448 23.8735C55.98 24.6055 55.314 25.1695 54.45 25.5655C53.598 25.9495 52.602 26.1415 51.462 26.1415ZM63.4451 26.1415C61.9571 26.1415 60.8111 25.7875 60.0071 25.0795C59.2031 24.3715 58.7651 23.3755 58.6931 22.0915C58.6811 21.9355 58.6751 21.6655 58.6751 21.2815C58.6751 20.8975 58.6811 20.6275 58.6931 20.4715C58.7651 19.1995 59.2151 18.2095 60.0431 17.5015C60.8711 16.7815 62.0051 16.4215 63.4451 16.4215C64.8971 16.4215 66.0371 16.7815 66.8651 17.5015C67.6931 18.2095 68.1431 19.1995 68.2151 20.4715C68.2271 20.6275 68.2331 20.8975 68.2331 21.2815C68.2331 21.6655 68.2271 21.9355 68.2151 22.0915C68.1431 23.3755 67.7051 24.3715 66.9011 25.0795C66.0971 25.7875 64.9451 26.1415 63.4451 26.1415ZM63.4451 23.9455C63.9731 23.9455 64.3631 23.7895 64.6151 23.4775C64.8671 23.1535 65.0111 22.6615 65.0471 22.0015C65.0591 21.8815 65.0651 21.6415 65.0651 21.2815C65.0651 20.9215 65.0591 20.6815 65.0471 20.5615C65.0111 19.9135 64.8611 19.4275 64.5971 19.1035C64.3451 18.7795 63.9611 18.6175 63.4451 18.6175C62.4491 18.6175 61.9211 19.2655 61.8611 20.5615L61.8431 21.2815L61.8611 22.0015C61.8851 22.6615 62.0231 23.1535 62.2751 23.4775C62.5391 23.7895 62.9291 23.9455 63.4451 23.9455Z" fill="black"/>
<path d="M75.385 26.1415C73.669 26.1415 72.325 25.7275 71.353 24.8995C70.393 24.0595 69.883 22.8475 69.823 21.2635C69.811 20.9395 69.805 20.4115 69.805 19.6795C69.805 18.9355 69.811 18.3955 69.823 18.0595C69.883 16.4995 70.405 15.2995 71.389 14.4595C72.373 13.6075 73.705 13.1815 75.385 13.1815C76.441 13.1815 77.389 13.3615 78.229 13.7215C79.069 14.0695 79.729 14.5735 80.209 15.2335C80.701 15.8815 80.953 16.6435 80.965 17.5195V17.5555C80.965 17.6515 80.923 17.7355 80.839 17.8075C80.767 17.8675 80.683 17.8975 80.587 17.8975H78.157C78.001 17.8975 77.881 17.8675 77.797 17.8075C77.713 17.7355 77.641 17.6095 77.581 17.4295C77.413 16.8175 77.149 16.3915 76.789 16.1515C76.429 15.8995 75.955 15.7735 75.367 15.7735C73.951 15.7735 73.219 16.5655 73.171 18.1495C73.159 18.4735 73.153 18.9715 73.153 19.6435C73.153 20.3155 73.159 20.8255 73.171 21.1735C73.219 22.7575 73.951 23.5495 75.367 23.5495C75.955 23.5495 76.435 23.4235 76.807 23.1715C77.179 22.9075 77.437 22.4815 77.581 21.8935C77.629 21.7135 77.695 21.5935 77.779 21.5335C77.863 21.4615 77.989 21.4255 78.157 21.4255H80.587C80.695 21.4255 80.785 21.4615 80.857 21.5335C80.941 21.6055 80.977 21.6955 80.965 21.8035C80.953 22.6795 80.701 23.4475 80.209 24.1075C79.729 24.7555 79.069 25.2595 78.229 25.6195C77.389 25.9675 76.441 26.1415 75.385 26.1415ZM87.0877 26.1415C85.5997 26.1415 84.4537 25.7875 83.6497 25.0795C82.8457 24.3715 82.4077 23.3755 82.3357 22.0915C82.3237 21.9355 82.3177 21.6655 82.3177 21.2815C82.3177 20.8975 82.3237 20.6275 82.3357 20.4715C82.4077 19.1995 82.8577 18.2095 83.6857 17.5015C84.5137 16.7815 85.6477 16.4215 87.0877 16.4215C88.5397 16.4215 89.6797 16.7815 90.5077 17.5015C91.3357 18.2095 91.7857 19.1995 91.8577 20.4715C91.8697 20.6275 91.8757 20.8975 91.8757 21.2815C91.8757 21.6655 91.8697 21.9355 91.8577 22.0915C91.7857 23.3755 91.3477 24.3715 90.5437 25.0795C89.7397 25.7875 88.5877 26.1415 87.0877 26.1415ZM87.0877 23.9455C87.6157 23.9455 88.0057 23.7895 88.2577 23.4775C88.5097 23.1535 88.6537 22.6615 88.6897 22.0015C88.7017 21.8815 88.7077 21.6415 88.7077 21.2815C88.7077 20.9215 88.7017 20.6815 88.6897 20.5615C88.6537 19.9135 88.5037 19.4275 88.2397 19.1035C87.9877 18.7795 87.6037 18.6175 87.0877 18.6175C86.0917 18.6175 85.5637 19.2655 85.5037 20.5615L85.4857 21.2815L85.5037 22.0015C85.5277 22.6615 85.6657 23.1535 85.9177 23.4775C86.1817 23.7895 86.5717 23.9455 87.0877 23.9455ZM94.1136 25.9615C93.9816 25.9615 93.8736 25.9195 93.7896 25.8355C93.7056 25.7515 93.6636 25.6435 93.6636 25.5115V17.0515C93.6636 16.9195 93.7056 16.8115 93.7896 16.7275C93.8736 16.6435 93.9816 16.6015 94.1136 16.6015H96.1836C96.3156 16.6015 96.4236 16.6495 96.5076 16.7455C96.6036 16.8295 96.6516 16.9315 96.6516 17.0515V17.7715C97.3116 16.9915 98.1996 16.6015 99.3156 16.6015H100.108C100.24 16.6015 100.348 16.6435 100.432 16.7275C100.516 16.8115 100.558 16.9195 100.558 17.0515V18.9055C100.558 19.0255 100.516 19.1335 100.432 19.2295C100.348 19.3135 100.24 19.3555 100.108 19.3555H98.3616C97.8696 19.3555 97.4856 19.4935 97.2096 19.7695C96.9456 20.0335 96.8136 20.4115 96.8136 20.9035V25.5115C96.8136 25.6435 96.7656 25.7515 96.6696 25.8355C96.5856 25.9195 96.4776 25.9615 96.3456 25.9615H94.1136ZM106.178 26.1415C104.69 26.1415 103.544 25.7875 102.74 25.0795C101.936 24.3715 101.498 23.3755 101.426 22.0915C101.414 21.9355 101.408 21.6655 101.408 21.2815C101.408 20.8975 101.414 20.6275 101.426 20.4715C101.498 19.1995 101.948 18.2095 102.776 17.5015C103.604 16.7815 104.738 16.4215 106.178 16.4215C107.63 16.4215 108.77 16.7815 109.598 17.5015C110.426 18.2095 110.876 19.1995 110.948 20.4715C110.96 20.6275 110.966 20.8975 110.966 21.2815C110.966 21.6655 110.96 21.9355 110.948 22.0915C110.876 23.3755 110.438 24.3715 109.634 25.0795C108.83 25.7875 107.678 26.1415 106.178 26.1415ZM106.178 23.9455C106.706 23.9455 107.096 23.7895 107.348 23.4775C107.6 23.1535 107.744 22.6615 107.78 22.0015C107.792 21.8815 107.798 21.6415 107.798 21.2815C107.798 20.9215 107.792 20.6815 107.78 20.5615C107.744 19.9135 107.594 19.4275 107.33 19.1035C107.078 18.7795 106.694 18.6175 106.178 18.6175C105.182 18.6175 104.654 19.2655 104.594 20.5615L104.576 21.2815L104.594 22.0015C104.618 22.6615 104.756 23.1535 105.008 23.4775C105.272 23.7895 105.662 23.9455 106.178 23.9455ZM113.203 25.9615C113.071 25.9615 112.963 25.9195 112.879 25.8355C112.795 25.7515 112.753 25.6435 112.753 25.5115V17.0515C112.753 16.9195 112.795 16.8115 112.879 16.7275C112.963 16.6435 113.071 16.6015 113.203 16.6015H115.273C115.405 16.6015 115.513 16.6435 115.597 16.7275C115.693 16.8115 115.741 16.9195 115.741 17.0515V17.7355C116.065 17.3395 116.479 17.0215 116.983 16.7815C117.499 16.5415 118.081 16.4215 118.729 16.4215C119.785 16.4215 120.643 16.7815 121.303 17.5015C121.963 18.2095 122.293 19.2055 122.293 20.4895V25.5115C122.293 25.6315 122.251 25.7395 122.167 25.8355C122.083 25.9195 121.975 25.9615 121.843 25.9615H119.575C119.455 25.9615 119.347 25.9195 119.251 25.8355C119.167 25.7395 119.125 25.6315 119.125 25.5115V20.5975C119.125 20.0335 118.987 19.6015 118.711 19.3015C118.435 18.9895 118.039 18.8335 117.523 18.8335C117.019 18.8335 116.623 18.9895 116.335 19.3015C116.047 19.6015 115.903 20.0335 115.903 20.5975V25.5115C115.903 25.6315 115.861 25.7395 115.777 25.8355C115.693 25.9195 115.585 25.9615 115.453 25.9615H113.203ZM127.128 26.1415C126.492 26.1415 125.91 26.0215 125.382 25.7815C124.866 25.5295 124.458 25.1935 124.158 24.7735C123.87 24.3415 123.726 23.8675 123.726 23.3515C123.726 22.5235 124.062 21.8575 124.734 21.3535C125.418 20.8495 126.354 20.5015 127.542 20.3095L129.792 19.9675V19.7155C129.792 19.2595 129.696 18.9235 129.504 18.7075C129.312 18.4915 128.988 18.3835 128.532 18.3835C128.256 18.3835 128.028 18.4315 127.848 18.5275C127.668 18.6235 127.482 18.7555 127.29 18.9235C127.122 19.0675 126.996 19.1635 126.912 19.2115C126.876 19.3075 126.81 19.3555 126.714 19.3555H124.752C124.632 19.3555 124.53 19.3195 124.446 19.2475C124.374 19.1635 124.344 19.0675 124.356 18.9595C124.368 18.6355 124.524 18.2755 124.824 17.8795C125.136 17.4835 125.604 17.1415 126.228 16.8535C126.864 16.5655 127.644 16.4215 128.568 16.4215C130.044 16.4215 131.136 16.7515 131.844 17.4115C132.552 18.0595 132.906 18.9355 132.906 20.0395V25.5115C132.906 25.6315 132.864 25.7395 132.78 25.8355C132.696 25.9195 132.588 25.9615 132.456 25.9615H130.368C130.248 25.9615 130.14 25.9195 130.044 25.8355C129.96 25.7395 129.918 25.6315 129.918 25.5115V24.8815C129.654 25.2535 129.282 25.5595 128.802 25.7995C128.334 26.0275 127.776 26.1415 127.128 26.1415ZM127.974 24.0895C128.526 24.0895 128.97 23.9095 129.306 23.5495C129.654 23.1895 129.828 22.6615 129.828 21.9655V21.7135L128.298 21.9835C127.218 22.1755 126.678 22.5535 126.678 23.1175C126.678 23.4175 126.804 23.6575 127.056 23.8375C127.308 24.0055 127.614 24.0895 127.974 24.0895Z" fill="#EC5863"/>
<path d="M14.2432 5.22497C15.6704 4.7208 17.2367 5.39415 17.7408 6.72829C18.1267 7.74973 17.7775 8.86151 16.9535 9.55336L17.3958 10.7682L18.1015 11.5854C18.2626 11.7724 18.5074 11.8615 18.7529 11.8308C19.4148 11.7479 20.0725 11.7436 20.7164 11.8102C20.9346 11.8331 21.1518 11.7604 21.3088 11.6074L21.8201 11.1111L22.1985 10.0118C21.8792 9.5718 21.7719 8.98844 21.9628 8.4336C22.2867 7.49305 23.3397 7.00526 24.2748 7.3884C25.0802 7.71805 25.5171 8.61637 25.2795 9.45353C25.1286 9.98676 24.7484 10.3866 24.281 10.5851L23.862 11.8033L23.9558 12.4739C23.988 12.7044 24.1242 12.9056 24.3234 13.0259C24.9933 13.4328 25.6084 13.9306 26.1481 14.5063C26.3294 14.7001 26.6004 14.7828 26.8611 14.7297L28.2028 14.4571L29.7197 13.6115C29.7289 12.8643 30.1286 12.1412 30.8303 11.75C31.8913 11.1588 33.2328 11.5522 33.7955 12.6307C34.3035 13.6037 33.9811 14.8286 33.0566 15.4299C32.3346 15.8986 31.4548 15.8832 30.7764 15.4854L29.2505 16.3354L28.3976 17.2436C28.1687 17.4873 28.0866 17.8315 28.1732 18.1534C28.1737 18.1553 28.1741 18.1565 28.1746 18.1584C28.3227 18.7131 28.4121 19.2707 28.4485 19.8235C28.4696 20.1529 28.655 20.4489 28.9458 20.6057L30.0556 21.2042L32.2567 21.6164C32.6455 21.2767 33.1805 21.1117 33.7267 21.2135C34.706 21.3972 35.3348 22.3682 35.082 23.3474C34.8645 24.186 34.0399 24.7455 33.179 24.6373C32.5919 24.5635 32.1184 24.2105 31.8647 23.7351L29.6493 23.3206L28.2821 23.49C28.03 23.5218 27.8098 23.6802 27.7065 23.9118C27.2958 24.8261 26.7299 25.6674 26.0318 26.394C25.8583 26.5745 25.7929 26.8326 25.8553 27.0741L26.1925 28.3885L27.0287 29.702C27.9515 29.5618 28.9107 29.9588 29.4417 30.7931C30.1555 31.9139 29.828 33.4003 28.7123 34.1265C27.5973 34.8524 26.0824 34.5403 25.3546 33.4335C24.845 32.6587 24.8412 31.7017 25.2569 30.9416L24.3692 29.5476L23.2762 28.6491C23.1143 28.5153 22.8935 28.4802 22.6955 28.5511C22.4758 28.6299 22.2518 28.7004 22.0227 28.762C20.7781 29.0968 19.5236 29.142 18.331 28.941C18.1562 28.9119 17.9772 28.9621 17.8432 29.0783L17.2548 29.5899L16.8158 30.6667C17.1105 31.1243 17.185 31.7124 16.9638 32.2557C16.5878 33.1776 15.5094 33.6063 14.5976 33.1721C13.8124 32.7983 13.4259 31.8768 13.7096 31.0538C13.8902 30.5296 14.2912 30.1513 14.7691 29.9793L15.2553 28.7858L15.1674 27.7385C14.2956 27.1936 13.5202 26.4937 12.8866 25.666L11.3936 25.8162L9.99502 26.5097C10.0024 27.4468 9.51834 28.3393 8.67095 28.7725C7.47355 29.384 6.00516 28.8474 5.39158 27.5733C4.77818 26.2998 5.25075 24.7716 6.44814 24.1601C7.3442 23.7023 8.39141 23.8874 9.11904 24.5438L10.438 23.8893L11.3543 22.907C11.4142 22.8426 11.4365 22.7524 11.414 22.6681L11.4136 22.6668C10.994 21.0946 11.0401 19.5044 11.4669 18.0422C11.4898 17.9619 11.4728 17.8754 11.419 17.8118L10.6318 16.8711L8.93377 15.9825C8.46521 16.1894 7.91017 16.1898 7.42254 15.9344C6.54162 15.4728 6.22597 14.3618 6.75323 13.4984C7.2161 12.7413 8.19951 12.4523 8.99688 12.8385C9.51302 13.0883 9.8454 13.5568 9.94293 14.0755L11.641 14.9641L12.8507 15.0757C12.9346 15.0836 13.0165 15.048 13.07 14.9827C13.62 14.3041 14.2744 13.7047 15.0174 13.2127C15.2212 13.077 15.3482 12.8526 15.3519 12.6084L15.3664 11.5105L14.8947 10.2159C13.8667 10.1438 12.9379 9.5232 12.5712 8.55301C12.0671 7.21887 12.8158 5.72851 14.2432 5.22497Z" fill="#EC5863"/>
<path d="M25.9996 18.744C25.0883 15.3296 21.5712 13.3089 18.1441 14.2308C14.7169 15.1526 12.6775 18.6678 13.5889 22.0822C14.5003 25.4967 18.0173 27.5173 21.4445 26.5955C24.8716 25.6736 26.911 22.1584 25.9996 18.744Z" fill="#F58A97"/>
<path d="M20.9467 24.7157C17.8442 25.5485 14.666 23.9651 13.4173 21.1192C13.4524 21.4392 13.5121 21.7604 13.5978 22.0808C14.5113 25.4961 18.0271 27.5196 21.4508 26.6005C24.8745 25.6814 26.9094 22.1679 25.996 18.7526C25.9103 18.4322 25.8017 18.124 25.6724 17.8294C26.0112 20.9195 24.0491 23.8828 20.9467 24.7157Z" fill="#F07281"/>
<path d="M11.3264 33.846C11.0667 32.8734 10.0651 32.2977 9.08938 32.5599C8.11366 32.8222 7.53325 33.8233 7.79301 34.7958C8.05277 35.7684 9.05433 36.3442 10.0301 36.0819C11.0058 35.8196 11.5862 34.8186 11.3264 33.846Z" fill="#EB5569"/>
<path d="M34.1122 28.261C33.9406 27.6186 33.279 27.2383 32.6346 27.4116C31.9901 27.5848 31.6067 28.246 31.7783 28.8884C31.9499 29.5308 32.6114 29.9111 33.2559 29.7378C33.9004 29.5646 34.2837 28.9034 34.1122 28.261Z" fill="#EB5569"/>
<path d="M30.8452 6.21476C30.5925 5.26857 29.6181 4.70839 28.6688 4.96357C27.7195 5.21874 27.1549 6.19264 27.4076 7.13883C27.6603 8.08501 28.6347 8.64519 29.584 8.39001C30.5333 8.13484 31.0979 7.16094 30.8452 6.21476Z" fill="#EB5569"/>
<path d="M20.1977 22.3407C19.962 21.4585 19.0536 20.9363 18.1686 21.1742C17.2836 21.4121 16.7571 22.3201 16.9928 23.2022C17.2284 24.0843 18.1368 24.6066 19.0218 24.3687C19.9068 24.1308 20.4333 23.2228 20.1977 22.3407Z" fill="#EB5569"/>
<path d="M24.3123 19.8632C24.1519 19.2628 23.5336 18.9073 22.9312 19.0692C22.3288 19.2311 21.9705 19.8491 22.1308 20.4496C22.2912 21.05 22.9095 21.4055 23.5119 21.2435C24.1143 21.0816 24.4726 20.4636 24.3123 19.8632Z" fill="#EB5569"/>
<path d="M19.959 17.3653C19.8244 16.8611 19.3051 16.5626 18.7993 16.6986C18.2935 16.8346 17.9926 17.3535 18.1272 17.8577C18.2619 18.3619 18.7811 18.6604 19.287 18.5244C19.7928 18.3885 20.0937 17.8695 19.959 17.3653Z" fill="#EB5569"/>
</svg>
